<svg height="785" viewBox="0 0 2800 785" width="2800" xmlns="http://www.w3.org/2000/svg"><g fill="#fff" fill-rule="evenodd"><path d="m2791.394531 1.545105h-120.449707v174.876099h-4.763428c-23.137451-40.827027-51.038085-51.714356-135.420898-51.714356-83.021728 0-116.366699 5.443665-145.628418 24.496338-34.025146 22.454895-46.954834 61.240601-46.954834 142.894836 0 80.293183 8.16626 112.954865 34.705811 137.451172 27.900879 25.176728 69.411621 34.022492 156.516357 34.022492 87.104981 0 119.088623-11.567597 142.226074-50.353333h6.124512v42.187958h113.644531zm-221.164551 213.661865c85.743653 0 101.395508 12.248108 101.395508 78.932373 0 37.424805-4.763672 54.436066-18.374023 63.281922-13.610108 9.526397-46.27417 14.96994-90.506836 14.96994-90.507568 0-104.117676-10.887207-104.117676-81.654114 0-64.642975 16.332031-75.530121 111.603027-75.530121z"/><path d="m1955.732788 133.552856v321.853455h120.449585v-133.368439c0-49.673004 3.402344-67.364776 14.971191-83.015106 11.56836-14.96991 34.025147-23.135437 61.245362-23.135437 49.677002 0 63.287109 12.92865 63.287109 60.560242h113.644531v-21.774475c0-96.624024-32.664306-129.285706-129.976806-129.285706-67.370117 0-101.395264 15.650452-123.852051 56.477478h-6.124512v-48.312012z"/><path d="m1622.965088 234.259644c3.402466-29.259461 12.249145-31.981324 98.67334-31.981324 72.814209 0 82.341308 6.804566 82.341308 57.15802v17.011231h-5.444091c-19.0542-20.413574-35.386231-25.176697-91.187745-25.176697-88.465942 0-119.769165 2.041382-149.030883 10.206787-46.955079 12.248078-68.731202 44.22937-68.731202 102.067658 0 76.210662 33.344849 100.026367 140.184327 100.026367 78.2583 0 108.880859-2.72171 128.615722-10.887177 21.776245-8.845886 34.705811-20.413604 44.913452-41.507568h4.76355v44.22937h115.685913v-193.92865c0-58.518799-6.805053-83.015137-27.220215-104.78949-27.220214-27.218139-51.718383-31.981323-157.196899-31.981323-96.631836 0-152.433472 6.124207-180.334228 19.052673-37.427857 18.372193-53.07959 43.54889-56.481934 90.500123zm80.299805 85.056396c51.037841 0 70.092163.68042 77.577758 3.402222 13.609986 4.763153 21.095581 14.289551 21.095581 27.218048 0 28.578949-23.817627 36.744415-108.880981 36.744415-64.648193 0-83.021729-7.484955-83.021729-33.342071 0-26.537629 19.73462-34.022614 93.229371-34.022614z"/><path d="m1345.318604 1.545105v453.861206h120.449584v-453.861206z"/><path d="m1190.843506 1.545105v453.861206h120.449585v-453.861206z"/><path d="m858.075867 234.259644c3.402588-29.259461 12.249328-31.981324 98.673523-31.981324 72.814209 0 82.341186 6.804566 82.341186 57.15802v17.011231h-5.444092c-19.054016-20.413574-35.386291-25.176697-91.187683-25.176697-88.465881 0-119.769104 2.041382-149.031006 10.206787-46.954895 12.248078-68.731018 44.22937-68.731018 102.067658 0 76.210662 33.344666 100.026367 140.184327 100.026367 78.258056 0 108.880859-2.72171 128.615539-10.887177 21.776367-8.845886 34.70575-20.413604 44.913391-41.507568h4.76355v44.22937h115.686157v-193.92865c0-58.518799-6.805053-83.015137-27.220215-104.78949-27.220214-27.218139-51.718505-31.981323-157.19696-31.981323-96.631836 0-152.433411 6.124207-180.334229 19.052673-37.427795 18.372193-53.079528 43.54889-56.481933 90.500123zm80.299743 85.056396c51.038086 0 70.092163.68042 77.577759 3.402222 13.61023 4.763153 21.095825 14.289551 21.095825 27.218048 0 28.578949-23.817871 36.744415-108.881164 36.744415-64.648072 0-83.021607-7.484955-83.021607-33.342071 0-26.537629 19.734681-34.022614 93.229187-34.022614z"/><path d="m.637949 133.552856v321.853455h120.449652v-132.688049c0-53.075135 4.083069-73.488709 17.693176-87.097718 13.610123-13.609008 37.427841-19.733215 73.494659-19.733215 34.705796 0 55.801468 5.443665 66.689652 17.691773 11.568542 12.24823 12.929565 21.093994 12.929565 71.447418v150.379791h120.449646v-132.688049c0-52.394715 4.083069-71.447388 17.693177-86.417359 12.929657-14.289367 35.386352-20.413574 71.453186-20.413574 35.386352 0 55.801452 5.443665 68.050537 17.691773 11.568664 11.567688 12.929687 17.691772 13.610229 71.447418v150.379791h120.449524v-150.379791c0-83.014984-6.124389-109.552643-34.025207-138.131562-27.900757-29.25946-67.37024-41.507568-134.059754-41.507568-78.938751 0-118.408172 19.052673-138.823303 67.364685-25.859314-47.631653-68.73111-67.364685-146.308853-67.364685-71.453171 0-112.283615 17.691712-129.976799 56.477478h-6.12455v-48.312012z"/><path d="m2577.048828 728.309875c.340576 18.712403 4.423584 29.939881 14.291016 38.785767 14.290771 13.268738 34.365478 16.671082 92.88916 16.671082 93.229248 0 115.005615-10.547058 115.005615-56.477478 0-36.063904-17.693359-49.672974-64.308105-50.013184-61.926026-.340271-72.473877-.680542-82.341309-1.360901-9.5271-.68042-14.290527-4.082764-14.290527-10.547058 0-10.206726 11.568603-13.268799 49.33667-13.268799 20.415283 0 32.664306 1.360901 37.76831 4.763123 2.04126 1.360962 2.72168 2.381592 4.083008 7.484985h61.245605c-1.361083-19.392822-4.423583-27.898437-12.929931-34.703003-13.610108-11.567688-33.684815-14.969909-88.465576-14.969909-42.191651 0-70.432373 2.381591-83.362305 7.484985-19.053955 7.144714-27.900391 22.114624-27.900391 46.951111 0 34.362793 19.053955 48.652343 64.64795 49.332763 59.204101 0 74.175048.34021 82.341064 1.02063 8.846924 1.020691 13.950439 5.443665 13.950439 11.907959 0 11.567627-11.228271 14.969971-50.357421 14.969971-37.768067 0-49.336914-4.082764-50.357422-18.032044zm-234.434082-175.556518v226.930603h56.822266v-21.093994h3.062256c11.908935 20.073364 27.220214 25.176758 72.133545 25.176758 41.510986 0 63.967773-4.763184 77.237304-16.671082 13.610596-11.907898 17.69336-28.238708 17.69336-68.385376 0-41.847839-4.763428-57.498108-20.415039-69.406067-13.950684-10.546997-36.406983-14.96997-76.216797-14.96997-40.149659 0-55.461182 5.783935-67.370118 25.857238h-2.722168v-87.43811zm113.644531 106.830933c16.332276 0 30.962891 1.701171 38.788575 4.422912 10.888183 4.422974 14.290771 11.907959 14.290771 33.342163 0 20.073303-2.381836 28.91919-9.186523 33.682312-6.464844 4.763184-21.095948 7.144715-42.872071 7.144715-15.991943 0-31.303466-1.70105-38.789062-4.082703-12.249024-4.082642-15.651612-11.567627-15.651612-34.362732 0-20.753723 2.722168-28.919189 11.228516-34.022644 6.804932-4.082703 21.095703-6.124023 42.191406-6.124023zm-280.02832 9.526306c1.701172-14.6297 6.124512-15.990601 49.33667-15.990601 36.406982 0 41.170654 3.402222 41.170654 28.578919v8.505737h-2.722168c-9.526855-10.206787-17.693115-12.588379-45.593994-12.588379-44.232666 0-59.884521 1.020691-74.515381 5.103394-23.477539 6.124084-34.365478 22.114685-34.365478 51.033874 0 38.105225 16.672363 50.013184 70.092285 50.013184 39.128906 0 54.44043-1.360901 64.307617-5.443665 10.888184-4.422913 17.353027-10.206787 22.456787-20.753723h2.381836v22.114624h57.843018v-96.964294c0-29.259461-3.402588-41.507508-13.610352-52.394837-13.609863-13.609009-25.858887-15.9906-78.598144-15.9906-48.316162 0-76.216797 3.062133-90.167237 9.526367-18.713867 9.186035-26.539795 21.774414-28.240966 45.25zm40.149902 42.528198c25.519043 0 35.045899.34021 38.788819 1.701172 6.804931 2.381531 10.547607 7.144714 10.547607 13.609009 0 14.28955-11.908691 18.372131-54.44043 18.372131-32.323974 0-41.510742-3.742493-41.510742-16.67096 0-13.268859 9.867432-17.011352 46.614746-17.011352zm-178.973144-158.885437v226.930603h60.224609v-226.930603z"/></g></svg>